<svg width="32" height="32" viewBox="0 0 57 57" fill="none" xmlns="http://www.w3.org/2000/svg">
    <path
        d="M16.5523 6.12918C16.2676 5.84453 16.2676 5.38302 16.5523 5.09837L21.4372 0.213488C21.7218 -0.0711631 22.1833 -0.0711626 22.468 0.213489L27.6096 5.35511C27.8942 5.63976 28.3558 5.63976 28.6404 5.35511L33.782 0.213489C34.0667 -0.0711626 34.5282 -0.071163 34.8128 0.213488L39.6977 5.09837C39.9824 5.38302 39.9824 5.84453 39.6977 6.12918L34.5561 11.2708C34.2714 11.5555 34.2714 12.017 34.5561 12.3016L39.6977 17.4432C39.9824 17.7279 39.9824 18.1894 39.6977 18.474L34.8128 23.3589C34.5282 23.6436 34.0667 23.6436 33.782 23.3589L16.5523 6.12918Z"
        fill="black"></path>
    <path
        d="M0.213489 33.782C-0.0711623 34.0667 -0.0711623 34.5282 0.213489 34.8128L5.09837 39.6977C5.38302 39.9824 5.84453 39.9824 6.12918 39.6977L23.3589 22.468C23.6436 22.1833 23.6436 21.7218 23.3589 21.4372L18.474 16.5523C18.1894 16.2676 17.7279 16.2676 17.4432 16.5523L12.3016 21.6939C12.017 21.9786 11.5555 21.9786 11.2708 21.6939L6.12918 16.5523C5.84453 16.2676 5.38302 16.2676 5.09837 16.5523L0.213488 21.4372C-0.0711631 21.7218 -0.0711626 22.1833 0.213489 22.468L5.35511 27.6096C5.63976 27.8942 5.63976 28.3558 5.35511 28.6404L0.213489 33.782Z"
        fill="black"></path>
    <path
        d="M39.6977 50.1208C39.9824 50.4055 39.9824 50.867 39.6977 51.1516L34.8128 56.0365C34.5282 56.3212 34.0667 56.3212 33.782 56.0365L28.6404 50.8949C28.3558 50.6102 27.8942 50.6102 27.6096 50.8949L22.468 56.0365C22.1833 56.3212 21.7218 56.3212 21.4372 56.0365L16.5523 51.1516C16.2676 50.867 16.2676 50.4055 16.5523 50.1208L21.6939 44.9792C21.9786 44.6945 21.9786 44.233 21.6939 43.9484L16.5523 38.8068C16.2676 38.5221 16.2676 38.0606 16.5523 37.776L21.4372 32.8911C21.7218 32.6064 22.1833 32.6064 22.468 32.8911L39.6977 50.1208Z"
        fill="black"></path>
    <path
        d="M32.8911 33.782C32.6064 34.0667 32.6064 34.5282 32.8911 34.8128L37.776 39.6977C38.0606 39.9824 38.5221 39.9824 38.8068 39.6977L43.9484 34.5561C44.233 34.2714 44.6945 34.2714 44.9792 34.5561L50.1208 39.6977C50.4055 39.9824 50.867 39.9824 51.1516 39.6977L56.0365 34.8128C56.3212 34.5282 56.3212 34.0667 56.0365 33.782L50.8949 28.6404C50.6102 28.3558 50.6102 27.8942 50.8949 27.6096L56.0365 22.468C56.3212 22.1833 56.3212 21.7218 56.0365 21.4372L51.1516 16.5523C50.867 16.2676 50.4055 16.2676 50.1208 16.5523L32.8911 33.782Z"
        fill="black"></path>
</svg>
